<svg width="80" height="80" viewBox="0 0 80 80" fill="none" xmlns="http://www.w3.org/2000/svg">
  <rect width="80" height="80" rx="40" fill="#1B2232"/>
  <path d="M16 78c3.8-16.5 13-24.8 24-24.8S60.2 61.5 64 78H16Z" fill="#5F7BFF"/>
  <path d="M24.5 35.8c0-10.4 6.9-18.8 15.5-18.8s15.5 8.4 15.5 18.8S48.6 54.6 40 54.6s-15.5-8.4-15.5-18.8Z" fill="#C98965"/>
  <path d="M24.4 32.4c.3-12.2 6.1-20.6 16.9-20.6 8.3 0 13.9 6.6 14.6 16.1-8.3.6-14.7-1.6-19.8-6.6-2.3 5.1-6.2 8.8-11.7 11.1Z" fill="#16171D"/>
  <path d="M30.6 38.1c2-1.1 4-1.1 6 0" stroke="#21151B" stroke-width="1.8" stroke-linecap="round"/>
  <path d="M43.4 38.1c2-1.1 4-1.1 6 0" stroke="#21151B" stroke-width="1.8" stroke-linecap="round"/>
  <path d="M34.8 46.3c3.2 2 7.2 2 10.4 0" stroke="#7D3E33" stroke-width="2" stroke-linecap="round"/>
</svg>
