<svg width="80" height="80" viewBox="0 0 80 80" fill="none" xmlns="http://www.w3.org/2000/svg">
  <rect width="80" height="80" rx="40" fill="#172B35"/>
  <path d="M16 78c3.4-16.4 12.6-24.6 24-24.6S60.6 61.6 64 78H16Z" fill="#1FB6A6"/>
  <path d="M23.8 34.5c0-10.6 7.2-19.2 16.2-19.2s16.2 8.6 16.2 19.2S49 53.7 40 53.7s-16.2-8.6-16.2-19.2Z" fill="#A9684F"/>
  <path d="M24 32.3c.2-12.9 7.2-21.5 17.2-21.5 8.1 0 15.1 5.4 16.1 17.2-6.5-1.2-16.2-4-23.4-10.5-2.8 6.2-5.6 10.8-9.9 14.8Z" fill="#121820"/>
  <path d="M30.6 36.8c2-1.3 4.1-1.3 6.1 0" stroke="#1B1820" stroke-width="1.8" stroke-linecap="round"/>
  <path d="M43.3 36.8c2-1.3 4.1-1.3 6.1 0" stroke="#1B1820" stroke-width="1.8" stroke-linecap="round"/>
  <path d="M34.5 45.4c3.5 2.1 7.5 2.1 11 0" stroke="#5F302C" stroke-width="2" stroke-linecap="round"/>
  <path d="M29 58.2c6.7 4.3 15.3 4.3 22 0" stroke="#B7FFF2" stroke-width="2" stroke-linecap="round" opacity=".55"/>
</svg>
