<svg width="80" height="80" viewBox="0 0 80 80" fill="none" xmlns="http://www.w3.org/2000/svg">
  <rect width="80" height="80" rx="40" fill="#25223A"/>
  <circle cx="40" cy="34" r="18" fill="#33263F"/>
  <path d="M17 78c3.8-17 13-25.5 23-25.5S59.2 61 63 78H17Z" fill="#7567FF"/>
  <path d="M24 32c.8-13.2 8.3-20.5 18-20.5 8.6 0 14 6.2 14 15.2 0 2.3-.3 4.6-.9 6.9-5.2-4-13.4-6.7-31.1-1.6Z" fill="#161420"/>
  <path d="M25.5 35.5c0-9.7 6.5-17.5 14.5-17.5s14.5 7.8 14.5 17.5S48 53 40 53s-14.5-7.8-14.5-17.5Z" fill="#C98664"/>
  <path d="M29.5 29.3c3.2-4.9 8.1-7.6 14.7-7.1 4.8.4 8 2.8 10 6.8-.8-9.4-6.4-16-14.2-16-8.5 0-14.8 7.2-15.9 17.7 1.4-.1 3.2-.5 5.4-1.4Z" fill="#18131C"/>
  <circle cx="34" cy="37" r="1.7" fill="#1A1520"/>
  <circle cx="46" cy="37" r="1.7" fill="#1A1520"/>
  <path d="M34.5 45.3c3.3 2.4 7.7 2.4 11 0" stroke="#6E352C" stroke-width="2" stroke-linecap="round"/>
</svg>
