<svg width="80" height="80" viewBox="0 0 80 80" fill="none" xmlns="http://www.w3.org/2000/svg">
  <rect width="80" height="80" rx="40" fill="#2A2031"/>
  <path d="M15 78c3.6-16.8 13.1-25.2 25-25.2S61.4 61.2 65 78H15Z" fill="#E8B85F"/>
  <path d="M22 33.8c0-11.7 7.7-21.2 18-21.2s18 9.5 18 21.2c0 15.1-8.3 23.2-18 23.2s-18-8.1-18-23.2Z" fill="#D29673"/>
  <path d="M21.6 38.7C19 26.2 23.5 10 40.8 10c13.1 0 19 9.2 17.7 23.9-10.6-1.5-19.5-6.2-25.9-13.4-1.2 7.1-4.8 13.1-11 18.2Z" fill="#3E2034"/>
  <circle cx="33.6" cy="39" r="1.7" fill="#22151E"/>
  <circle cx="46.4" cy="39" r="1.7" fill="#22151E"/>
  <path d="M34.7 47c3.2 2.6 7.4 2.6 10.6 0" stroke="#8E493B" stroke-width="2" stroke-linecap="round"/>
  <path d="M27 59.2c7.9 4 18.1 4 26 0" stroke="#FFF0C6" stroke-width="2" stroke-linecap="round" opacity=".55"/>
</svg>
